# AST/ASF file generated using VICON BodyLanguage
# -----------------------------------------------
:version 1.10
:name VICON
:units
  mass 1.0
  length 0.45
  angle deg
:documentation
   .ast/.asf automatically generated from VICON data using
   VICON BodyBuilder and BodyLanguage model FoxedUp or BRILLIANT.MOD
:root
   order TX TY TZ RX RY RZ
   axis XYZ
   position 0 0 0  
   orientation 0 0 0 
:bonedata
  begin
     id 1 
     name lhipjoint
     direction 0.567149 -0.783011 0.255413 
     length 2.28399 
     axis 0 0 0  XYZ
  end
  begin
     id 2 
     name lfemur
     direction 0.34202 -0.939693 0  
     length 7.34031  
     axis 0 0 20  XYZ
    dof rx ry rz
    limits (-160.0 20.0)
           (-70.0 70.0)
           (-60.0 70.0)
  end
  begin
     id 3 
     name ltibia
     direction 0.34202 -0.939693 0   
     length 6.9833   
     axis 0 0 20   XYZ
    dof rx
    limits (-10.0 170.0)
  end
  begin
     id 4 
     name lfoot
     direction 0.136498 -0.375025 0.91691   
     length 2.33665   
     axis -90 7.62852e-016 20   XYZ
    dof rx rz
    limits (-45.0 90.0)
           (-70.0 20.0)
  end
  begin
     id 5 
     name ltoes
     direction 1.5367e-011 -4.21617e-011 1   
     length 1.15039   
     axis -90 7.62852e-016 20   XYZ
    dof rx
    limits (-90.0 20.0)
  end
  begin
     id 6 
     name rhipjoint
     direction -0.602854 -0.758518 0.247423   
     length 2.35775  
     axis 0 0 0  XYZ 
  end
  begin
     id 7 
     name rfemur
     direction -0.34202 -0.939693 0   
     length 7.43932   
     axis 0 0 -20   XYZ
    dof rx ry rz
    limits (-160.0 20.0)
           (-70.0 70.0)
           (-70.0 60.0)
  end
  begin
     id 8 
     name rtibia
     direction -0.34202 -0.939693 0   
     length 7.11893   
     axis 0 0 -20   XYZ
    dof rx
    limits (-10.0 170.0)
 end
 begin
     id 9 
     name rfoot
     direction -0.131771 -0.362037 0.922803   
     length 2.53019  
     axis -90 -7.62852e-016 -20   XYZ
    dof rx rz
    limits (-45.0 90.0)
           (-20.0 70.0)
  end
  begin
     id 10 
     name rtoes
     direction -1.53733e-011 -4.21932e-011 1   
     length 1.24596   
     axis -90 -7.62852e-016 -20   XYZ
    dof rx
    limits (-90.0 20.0)
  end
  begin
     id 11 
     name lowerback
     direction 0.0235427 0.999023 -0.0374125   
     length 2.21768   
     axis 0 0 0   XYZ
    dof rx ry rz
    limits (-20.0 45.0)
           (-30.0 30.0)
           (-30.0 30.0)
  end
  begin
     id 12 
     name upperback
     direction 0.0302156 0.996818 -0.073759   
     length 2.20352   
     axis 0 0 0   XYZ
    dof rx ry rz
    limits (-20.0 45.0)
           (-30.0 30.0)
           (-30.0 30.0)
  end
  begin
     id 13 
     name thorax
     direction 0.0187169 0.998235 -0.0563532   
     length 2.22103   
     axis 0 0 0   XYZ
    dof rx ry rz
    limits (-20.0 45.0)
           (-30.0 30.0)
           (-30.0 30.0)
  end
  begin
     id 14 
     name lowerneck
     direction -0.119528 0.987423 0.103481   
     length 1.72948   
     axis 0 0 0   XYZ
    dof rx ry rz
    limits (-20.0 45.0)
           (-30.0 30.0)
           (-30.0 30.0)
  end
  begin
     id 15 
     name upperneck
     direction 0.248049 0.963095 -0.104496   
     length 1.74979   
     axis 0 0 0   XYZ
    dof rx ry rz
    limits (-20.0 45.0)
           (-30.0 30.0)
           (-30.0 30.0)
  end
  begin
     id 16
     name head
     direction 0.0903589 0.994284 -0.056876  
     length 1.78268  
     axis 0 0 0   XYZ
    dof rx ry rz
    limits (-20.0 45.0)
           (-30.0 30.0)
           (-30.0 30.0)
  end
  begin
     id 17 
     name lclavicle
     direction 0.946008 0.242039 -0.215608  
     length 3.80783  
     axis 0 0 0   XYZ
    dof ry rz
    limits (-20.0 10.0)
           (0.0 20.0)
  end
  begin
     id 18 
     name lhumerus
     direction 1 -4.48991e-011 -2.25695e-027   
     length 4.83125   
     axis 180 -30 -90   XYZ
    dof rx ry rz
    limits (-60.0 90.0)
           (-90.0 90.0)
           (-90.0 90.0)
  end
  begin
     id 19
     name lradius
     direction 0.999991 0.00366712 -0.00211721   
     length 3.00391   
     axis 180 -30 -90   XYZ
    dof rx
    limits (-10.0 170.0)
  end
  begin
     id 20
     name lwrist
     direction 0.999991 0.00393016 -0.00141978   
     length 1.50195   
     axis -1.00488e-014 90 90   XYZ
    dof ry
    limits (-180.0 0.0)
 end
  begin
     id 21 
     name lhand
     direction 1 -4.49123e-011 2.72098e-026   
     length 1.2717   
     axis -1.73687e-014 90 90   XYZ
    dof rx rz
    limits (-90.0 90.0)
           (-45.0 45.0)
  end
  begin
     id 22 
     name lfingers
     direction 1 -4.48678e-011 5.4479e-026   
     length 1.02528   
     axis -3.47372e-014 90 90   XYZ
    dof rx
    limits (0.0 90.0)
  end
  begin
     id 23
     name lthumb
     direction 0.707107 -6.34851e-011 0.707107   
     length 1.4721   
     axis -90 45 -1.62303e-014   XYZ
    dof rx rz
    limits (-45.0 45.0)
           (-45.0 45.0)
  end
  begin
     id 24 
     name rclavicle
     direction -0.981723 0.189447 -0.0181673   
     length 3.74989  
     axis 0 0 0   XYZ 
    dof ry rz
    limits (-10.0 20.0)
           (-20.0 0.0)
  end
  begin
     id 25 
     name rhumerus
     direction -1 -4.48985e-011 2.38206e-027  
     length 4.61118   
     axis 180 30 90   XYZ
    dof rx ry rz
    limits (-90.0 60.0)
           (-90.0 90.0)
           (-90.0 90.0)
  end
  begin
     id 26 
     name rradius
     direction -1 -4.48977e-011 7.41019e-027   
     length 2.91491   
     axis 180 30 90   XYZ
    dof rx
    limits (-10.0 170.0)
  end
  begin
     id 27 
     name rwrist
     direction -1 -4.48549e-011 1.3624e-026   
     length 1.45745   
     axis -1.00488e-014 -90 -90   XYZ
    dof ry
    limits (-180.0 0.0)
  end
  begin
     id 28
     name rhand
     direction -1 -4.49107e-011 2.72109e-026   
     length 1.30769   
     axis -1.73687e-014 -90 -90   XYZ
    dof rx rz
    limits (-90.0 90.0)
           (-45.0 45.0)
  end
  begin
     id 29
     name rfingers
     direction -1 -4.48919e-011 5.44468e-026   
     length 1.05429   
     axis -3.47372e-014 -90 -90   XYZ
    dof rx
    limits (0.0 90.0)
  end
  begin
     id 30
     name rthumb
     direction -0.707107 -6.35315e-011 0.707107   
     length 1.51376   
     axis -90 -45 1.62303e-014   XYZ
    dof rx rz
    limits (-45.0 45.0)
           (-45.0 45.0)
  end
:hierarchy
  begin
    root lhipjoint rhipjoint lowerback
    lhipjoint lfemur
    lfemur ltibia
    ltibia lfoot
    lfoot ltoes
    rhipjoint rfemur
    rfemur rtibia
    rtibia rfoot
    rfoot rtoes
    lowerback upperback
    upperback thorax
    thorax lowerneck lclavicle rclavicle
    lowerneck upperneck
    upperneck head
    lclavicle lhumerus
    lhumerus lradius
    lradius lwrist
    lwrist lhand lthumb
    lhand lfingers
    rclavicle rhumerus
    rhumerus rradius
    rradius rwrist
    rwrist rhand rthumb
    rhand rfingers
  end

#!OML:ASF X:\für Bonn\!DataBase\2005_08_11_Bastian_Final\c3d\Bastian.ASF
:FULLY-SPECIFIED
:DEGREES
1
root -0.307058 17.4389 6.43559 178.946 -8.59345 -178.491
lowerback 7.47748 -2.89179 -2.26115
upperback 4.01113 -4.28111 0.0776213
thorax 0.127449 -2.29882 1.6462
lowerneck -9.92522 -7.32849 -3.86829
upperneck -4.54692 -8.72584 11.9603
head 1.0714 -3.84658 4.24684
rclavicle 4.44284e-014 -9.14409e-015
rhumerus 68.6 16.7258 -11.0973
rradius 41.9057
rwrist -43.2649
rhand -43.7732 -2.88586
rfingers 7.12502
rthumb -16.6029 -32.1957
lclavicle 4.44284e-014 -9.14409e-015
lhumerus 60.1803 -15.6418 7.66224
lradius 34.8818
lwrist -4.91284
lhand -43.9589 8.35396
lfingers 7.12502
lthumb -16.7816 37.6487
rfemur -12.7274 2.76848 25.5913
rtibia 40.7522
rfoot -24.4442 -18.3302
rtoes -1.15047
lfemur -10.0299 6.06692 -18.1889
ltibia 30.4026
lfoot -11.7523 -14.4851
ltoes -7.01286
2
root -0.309924 17.431 6.42546 178.796 -8.46129 -178.541
lowerback 7.4495 -2.85197 -2.29136
upperback 4.0946 -4.2374 0.0413503
thorax 0.22646 -2.28276 1.61775
lowerneck -9.76465 -7.32911 -3.91932
upperneck -4.64448 -8.71558 11.9998
head 1.01532 -3.84839 4.27718
rclavicle -3.03147e-014 7.55382e-015
rhumerus 68.5228 16.633 -11.139
rradius 42.0762
rwrist -43.7125
rhand -43.8773 -2.66898
rfingers 7.12502
rthumb -16.7031 -31.9704
lclavicle -3.03147e-014 7.55382e-015
lhumerus 60.0966 -15.6081 7.77397
lradius 35.2574
lwrist -4.06398
lhand -44.1604 8.38203
lfingers 7.12502
lthumb -16.9756 37.6602
rfemur -12.5539 2.64082 25.5353
rtibia 40.7894
rfoot -24.4509 -18.1892
rtoes -1.58918
lfemur -9.82516 6.37982 -18.2045
ltibia 30.4413
lfoot -11.7789 -14.6653
ltoes -6.7598
3
root -0.311975 17.4227 6.41543 178.593 -8.33815 -178.606
lowerback 7.4839 -2.81467 -2.33865
upperback 4.18886 -4.20224 -0.00456148
thorax 0.303134 -2.27214 1.59303
lowerneck -9.61651 -7.32103 -3.96918
upperneck -4.72232 -8.69533 12.0536
head 0.967933 -3.84404 4.31261
rclavicle -2.23633e-014 3.97569e-015
rhumerus 68.4746 16.5926 -11.0545
rradius 42.2866
rwrist -44.2495
rhand -44.0316 -2.43688
rfingers 7.12502
rthumb -16.8517 -31.7257
lclavicle -2.23633e-014 3.97569e-015
lhumerus 59.9576 -15.6248 7.85189
lradius 35.7069
lwrist -3.10057
lhand -44.3689 8.39962
lfingers 7.12502
lthumb -17.1763 37.6605
rfemur -12.3251 2.48982 25.4561
rtibia 40.8367
rfoot -24.527 -17.9556
rtoes -1.74201
lfemur -9.55706 6.5844 -18.2348
ltibia 30.4849
lfoot -11.8188 -14.7383
ltoes -6.60282
4
root -0.313976 17.4128 6.40598 178.347 -8.19445 -178.664
lowerback 7.57664 -2.76731 -2.39847
upperback 4.2801 -4.1572 -0.036673
thorax 0.34609 -2.25708 1.59254
lowerneck -9.43085 -7.31912 -4.02913
upperneck -4.82202 -8.68293 12.0855
head 0.906578 -3.84647 4.34312
rclavicle 1.49089e-015 1.23246e-014
rhumerus 68.4395 16.6101 -10.8671
rradius 42.5151
rwrist -44.8554
rhand -44.244 -2.19711
rfingers 7.12502
rthumb -17.056 -31.4684
lclavicle 1.49089e-015 1.23246e-014
lhumerus 59.7775 -15.6732 8.03899
lradius 36.1547
lwrist -2.20182
lhand -44.5807 8.39722
lfingers 7.12502
lthumb -17.3802 37.6402
rfemur -12.0673 2.32853 25.3735
rtibia 40.888
rfoot -24.5754 -17.6959
rtoes -1.92217
lfemur -9.23991 6.67929 -18.2677
ltibia 30.5448
lfoot -11.9139 -14.656
ltoes -6.41037
5
root -0.316075 17.4027 6.39742 178.094 -8.06459 -178.745
lowerback 7.67539 -2.72056 -2.4473
upperback 4.39217 -4.11529 -0.115611
thorax 0.403073 -2.24446 1.53764
lowerneck -9.30266 -7.31048 -4.00663
upperneck -4.89437 -8.66597 12.1342
head 0.860443 -3.84278 4.36214
rclavicle 9.0447e-015 -1.39149e-014
rhumerus 68.3279 16.6612 -10.9368
rradius 42.6902
rwrist -45.2125
rhand -44.4396 -1.94402
rfingers 7.12502
rthumb -17.2443 -31.1989
lclavicle 9.0447e-015 -1.39149e-014
lhumerus 59.6256 -15.7111 8.10278
lradius 36.6397
lwrist -1.29688
lhand -44.7514 8.41451
lfingers 7.12502
lthumb -17.5445 37.6429
rfemur -11.8167 2.07797 25.2471
rtibia 40.9621
rfoot -24.6313 -17.3335
rtoes -2.02243
lfemur -8.9095 6.63061 -18.3358
ltibia 30.602
lfoot -12.0223 -14.4458
ltoes -6.26459
6
root -0.317275 17.391 6.38956 177.784 -7.95602 -178.795
lowerback 7.83724 -2.67937 -2.50078
upperback 4.50575 -4.08456 -0.155551
thorax 0.430748 -2.23845 1.52976
lowerneck -9.11426 -7.3089 -4.04735
upperneck -5.00722 -8.65275 12.1749
head 0.793696 -3.84455 4.39266
rclavicle 2.48481e-015 1.03368e-014
rhumerus 68.2403 16.7851 -11.0598
rradius 42.8077
rwrist -45.4171
rhand -44.6569 -1.72491
rfingers 7.12502
rthumb -17.4535 -30.9614
lclavicle 2.48481e-015 1.03368e-014
lhumerus 59.4346 -15.774 8.2906
lradius 37.0728
lwrist -0.522495
lhand -44.9464 8.50279
lfingers 7.12502
lthumb -17.7321 37.7143
rfemur -11.5158 1.81724 25.1567
rtibia 41.0401
rfoot -24.6579 -17.0116
rtoes -2.06865
lfemur -8.53164 6.44841 -18.3759
ltibia 30.677
lfoot -12.1911 -14.1529
ltoes -6.26863
7
root -0.317253 17.3796 6.38177 177.486 -7.84836 -178.892
lowerback 7.99759 -2.6258 -2.61901
upperback 4.62039 -4.04252 -0.193735
thorax 0.464613 -2.22853 1.55859
lowerneck -8.99055 -7.31297 -4.11191
upperneck -5.06865 -8.65067 12.2124
head 0.757334 -3.84869 4.42331
rclavicle -1.5704e-014 2.62396e-014
rhumerus 68.132 16.9135 -11.1878
rradius 42.9074
rwrist -45.5554
rhand -44.8462 -1.43877
rfingers 7.12502
rthumb -17.6356 -30.659
lclavicle -1.5704e-014 2.62396e-014
lhumerus 59.2105 -15.8212 8.55494
lradius 37.5414
lwrist 0.0587932
lhand -45.0337 8.61387
lfingers 7.12502
lthumb -17.816 37.8178
rfemur -11.2316 1.55726 25.0117
rtibia 41.1315
rfoot -24.7051 -16.651
rtoes -1.8622
lfemur -8.15484 6.1839 -18.4761
ltibia 30.7562
lfoot -12.3978 -13.7789
ltoes -6.34338
8
root -0.31512 17.3675 6.37498 177.147 -7.74286 -178.985
lowerback 8.22279 -2.56998 -2.75392
upperback 4.73138 -4.00271 -0.23232
thorax 0.460296 -2.22032 1.60037
lowerneck -8.82755 -7.31841 -4.17711
upperneck -5.1519 -8.64873 12.2623
head 0.707663 -3.85446 4.46022
rclavicle 2.57426e-014 4.37326e-015
rhumerus 68.034 17.0784 -11.235
rradius 43.0119
rwrist -45.6686
rhand -45.075 -1.21572
rfingers 7.12502
rthumb -17.8558 -30.416
lclavicle 2.57426e-014 4.37326e-015
lhumerus 58.9884 -15.8874 8.80272
lradius 38.0118
lwrist 0.587122
lhand -45.0526 8.71784
lfingers 7.12502
lthumb -17.8343 37.9201
rfemur -10.8997 1.42529 24.8928
rtibia 41.219
rfoot -24.6953 -16.3672
rtoes -1.34492
lfemur -7.75137 5.97099 -18.5588
ltibia 30.8391
lfoot -12.5788 -13.434
ltoes -6.45785
9
root -0.313721 17.3559 6.36718 176.805 -7.63568 -179.052
lowerback 8.41478 -2.52 -2.85698
upperback 4.85824 -3.96915 -0.260244
thorax 0.489592 -2.21614 1.63304
lowerneck -8.6768 -7.31477 -4.21229
upperneck -5.24417 -8.63695 12.259
head 0.651468 -3.85658 4.47267
rclavicle -1.0635e-014 -1.15295e-014
rhumerus 67.9875 17.2343 -11.2112
rradius 43.0677
rwrist -45.7464
rhand -45.278 -1.04198
rfingers 7.12502
rthumb -18.0511 -30.2243
lclavicle -1.0635e-014 -1.15295e-014
lhumerus 58.7844 -15.9223 9.12356
lradius 38.301
lwrist 0.954994
lhand -45.0062 8.72506
lfingers 7.12502
lthumb -17.7896 37.9313
rfemur -10.572 1.28088 24.8
rtibia 41.3044
rfoot -24.641 -16.1238
rtoes -0.893663
lfemur -7.34243 5.73349 -18.6222
ltibia 30.9193
lfoot -12.7743 -13.0845
ltoes -6.59281
10
root -0.31431 17.3453 6.36008 176.465 -7.55049 -179.167
lowerback 8.62054 -2.46763 -2.96361
upperback 4.97041 -3.93325 -0.323797
thorax 0.493712 -2.20967 1.63222
lowerneck -8.47834 -7.31681 -4.25715
upperneck -5.33257 -8.63296 12.3073
head 0.592459 -3.86322 4.50667
rclavicle 5.96354e-015 -2.38542e-015
rhumerus 67.8864 17.4355 -11.2356
rradius 43.1027
rwrist -45.7248
rhand -45.4641 -0.932733
rfingers 7.12502
rthumb -18.2302 -30.0985
lclavicle 5.96354e-015 -2.38542e-015
lhumerus 58.6537 -15.984 9.50592
lradius 38.4367
lwrist 1.09802
lhand -44.9111 8.72323
lfingers 7.12502
lthumb -17.6981 37.9378
rfemur -10.2366 1.1569 24.6487
rtibia 41.3829
rfoot -24.5852 -15.9115
rtoes -0.435981
lfemur -6.93216 5.41433 -18.7633
ltibia 30.9954
lfoot -12.9766 -12.6591
ltoes -6.81715
11
root -0.314075 17.3339 6.35216 176.12 -7.47008 -179.235
lowerback 8.80759 -2.42332 -3.04939
upperback 5.08705 -3.90622 -0.350545
thorax 0.514539 -2.20818 1.65683
lowerneck -8.2978 -7.32093 -4.34779
upperneck -5.40648 -8.63208 12.3443
head 0.543404 -3.87094 4.5446
rclavicle -5.04913e-014 1.74931e-014
rhumerus 67.8294 17.6466 -11.2361
rradius 43.0955
rwrist -45.5803
rhand -45.5653 -0.897633
rfingers 7.12502
rthumb -18.3276 -30.0542
lclavicle -5.04913e-014 1.74931e-014
lhumerus 58.4873 -16.0383 9.98707
lradius 38.5076
lwrist 1.08643
lhand -44.7809 8.64377
lfingers 7.12502
lthumb -17.5728 37.8696
rfemur -9.90201 1.01838 24.5526
rtibia 41.455
rfoot -24.5152 -15.7417
rtoes -0.130943
lfemur -6.53075 5.22023 -18.8346
ltibia 31.0785
lfoot -13.1393 -12.3537
ltoes -6.96005
12
root -0.314139 17.3237 6.3444 175.779 -7.40386 -179.35
lowerback 8.99368 -2.37613 -3.16932
upperback 5.21519 -3.88044 -0.396244
thorax 0.548938 -2.2092 1.68039
lowerneck -8.13005 -7.32876 -4.42085
upperneck -5.50178 -8.63324 12.3779
head 0.488598 -3.87897 4.57791
rclavicle -2.25621e-014 3.37934e-014
rhumerus 67.7579 17.8532 -11.2321
rradius 43.0758
rwrist -45.3919
rhand -45.6613 -0.900721
rfingers 7.12502
rthumb -18.4199 -30.0486
lclavicle -2.25621e-014 3.37934e-014
lhumerus 58.3495 -16.115 10.41
lradius 38.5587
lwrist 1.09091
lhand -44.6669 8.5486
lfingers 7.12502
lthumb -17.4631 37.7842
rfemur -9.5613 0.908802 24.4088
rtibia 41.5309
rfoot -24.4795 -15.5853
rtoes -0.0019088
lfemur -6.13337 5.0084 -18.9598
ltibia 31.1682
lfoot -13.2867 -12.0673
ltoes -6.85871
13
root -0.313562 17.3126 6.3366 175.468 -7.3533 -179.444
lowerback 9.18615 -2.33781 -3.26862
upperback 5.31612 -3.86279 -0.43501
thorax 0.551266 -2.21187 1.70159
lowerneck -8.00398 -7.33372 -4.46423
upperneck -5.54309 -8.63959 12.3834
head 0.456043 -3.88856 4.59284
rclavicle -3.08116e-014 3.97569e-015
rhumerus 67.71 18.0748 -11.2604
rradius 43.0032
rwrist -45.1472
rhand -45.6879 -1.01684
rfingers 7.12502
rthumb -18.4455 -30.1623
lclavicle -3.08116e-014 3.97569e-015
lhumerus 58.185 -16.2102 10.8878
lradius 38.5731
lwrist 0.882294
lhand -44.5701 8.53457
lfingers 7.12502
lthumb -17.3699 37.7784
rfemur -9.26829 0.685346 24.2715
rtibia 41.61
rfoot -24.3916 -15.3748
rtoes -0.0165328
lfemur -5.79052 4.88883 -19.0541
ltibia 31.2833
lfoot -13.4718 -11.8741
ltoes -7.0792
